<svg width="22" height="22" viewBox="0 0 22 22" fill="none" xmlns="http://www.w3.org/2000/svg">
<g clip-path="url(#clip0_172_346)">
<path d="M13.4088 2.29646C10.3468 -0.765488 5.36529 -0.765488 2.30333 2.29646C-0.758663 5.35842 -0.758663 10.3405 2.30333 13.4024C5.36529 16.4644 10.3468 16.4644 13.4088 13.4024C16.4707 10.3405 16.4707 5.35842 13.4088 2.29646ZM12.3184 12.3121C9.85415 14.7759 5.85797 14.7759 3.39366 12.3116C0.929364 9.84732 0.929364 5.85114 3.39366 3.38731C5.85797 0.923012 9.85367 0.923012 12.318 3.38731C14.7823 5.85161 14.7827 9.84732 12.3184 12.3121Z" fill="#BABABA"/>
<path d="M4.37859 4.83528C3.11716 6.45628 3.01214 8.68661 4.06402 10.4084C4.14467 10.5411 4.31762 10.5824 4.44979 10.5022C4.58149 10.421 4.62326 10.2485 4.5426 10.1164C3.61164 8.5929 3.70446 6.61281 4.82057 5.18032C4.91622 5.05842 4.89417 4.8822 4.7718 4.78699C4.64998 4.69185 4.47373 4.71342 4.37859 4.83528Z" fill="#BABABA"/>
<path d="M21.421 19.238L15.7218 13.6864C15.41 13.3827 14.9122 13.3864 14.6042 13.6939L13.7005 14.5977C13.393 14.9052 13.3896 15.403 13.6939 15.7143L19.245 21.4135C19.8615 22.1579 20.7722 22.202 21.4758 21.4979C22.1804 20.7947 22.1649 19.8544 21.421 19.238Z" fill="#BABABA"/>
</g>
<defs>
<clipPath id="clip0_172_346">
<rect width="22" height="22" fill="white"/>
</clipPath>
</defs>
</svg>
