<svg width="11" height="11" viewBox="0 0 11 11" fill="none" xmlns="http://www.w3.org/2000/svg">
<g clip-path="url(#clip0_82_785)">
<path d="M0.769845 3.1604C0.76988 3.11927 0.778033 3.07856 0.793837 3.04059C0.809642 3.00262 0.832785 2.96814 0.861942 2.93913C0.891186 2.91004 0.925903 2.88702 0.964089 2.87141C1.00227 2.8558 1.04317 2.8479 1.08443 2.84817C1.12568 2.84845 1.16647 2.85689 1.20444 2.873C1.24242 2.88912 1.27683 2.9126 1.30568 2.94208L4.81648 6.50299C4.84533 6.53247 4.87974 6.55595 4.91771 6.57206C4.95569 6.58818 4.99648 6.59662 5.03773 6.59689C5.07899 6.59717 5.11988 6.58927 5.15807 6.57366C5.19626 6.55805 5.23097 6.53503 5.26022 6.50593L8.81177 2.99195C8.871 2.9335 8.95103 2.90097 9.03425 2.90152C9.11746 2.90208 9.19705 2.93567 9.25551 2.9949C9.31396 3.05414 9.34649 3.13416 9.34593 3.21738C9.34538 3.3006 9.31179 3.38019 9.25256 3.43864L5.6979 6.94948C5.52096 7.12387 5.28203 7.22089 5.0336 7.21924C4.78516 7.21759 4.54754 7.1174 4.37293 6.94067L0.858993 3.38287C0.830225 3.35348 0.807542 3.3187 0.792243 3.28052C0.776945 3.24235 0.769334 3.20153 0.769845 3.1604Z" fill="white"/>
</g>
<defs>
<clipPath id="clip0_82_785">
<rect width="10" height="10" fill="white" transform="translate(10.0812 0.081543) rotate(90.3807)"/>
</clipPath>
</defs>
</svg>
