<svg width="100" height="100" viewBox="0 0 100 100" fill="none" xmlns="http://www.w3.org/2000/svg">
<path d="M84.2148 77.1363C83.789 75.8605 82.5958 75 81.2499 75H74.9999V46.875C74.9999 33.0902 63.7847 21.875 49.9999 21.875C36.2152 21.875 24.9999 33.0902 24.9999 46.875V75H18.7499C17.404 75 16.2109 75.8605 15.7851 77.1363L9.5351 95.8863C9.21771 96.8385 9.37787 97.8883 9.96537 98.7031C10.5529 99.5178 11.4958 100 12.4999 100H87.4999C88.504 100 89.447 99.5178 90.0345 98.7029C90.622 97.8881 90.7822 96.8383 90.4648 95.8861L84.2148 77.1363ZM31.2499 46.875C31.2499 36.5355 39.6607 28.125 49.9999 28.125C60.3392 28.125 68.7499 36.5357 68.7499 46.875V75H31.2499V46.875ZM16.8349 93.75L21.0021 81.25H28.1249H71.8749H78.9978L83.165 93.75H16.8349Z" fill="#f87171"/>
<path d="M50 15.625C51.7258 15.625 53.125 14.2258 53.125 12.5V3.125C53.125 1.39922 51.7258 0 50 0C48.2742 0 46.875 1.39922 46.875 3.125V12.5C46.875 14.2258 48.2742 15.625 50 15.625Z" fill="#f87171"/>
<path d="M93.75 43.75H84.375C82.6492 43.75 81.25 45.1492 81.25 46.875C81.25 48.6008 82.6492 50 84.375 50H93.75C95.4758 50 96.875 48.6008 96.875 46.875C96.875 45.1492 95.4758 43.75 93.75 43.75Z" fill="#f87171"/>
<path d="M18.75 46.875C18.75 45.1492 17.3508 43.75 15.625 43.75H6.25C4.52422 43.75 3.125 45.1492 3.125 46.875C3.125 48.6008 4.52422 50 6.25 50H15.625C17.3508 50 18.75 48.6008 18.75 46.875Z" fill="#f87171"/>
<path d="M74.3073 25.6928C75.1069 25.6928 75.9065 25.3875 76.5168 24.7772L83.1454 18.1487C84.3661 16.928 84.3661 14.9504 83.1454 13.7297C81.9247 12.509 79.9471 12.509 78.7264 13.7297L72.0979 20.3583C70.8772 21.579 70.8772 23.5565 72.0979 24.7772C72.7083 25.3875 73.5077 25.6928 74.3073 25.6928Z" fill="#f87171"/>
<path d="M23.4833 24.7772C24.0937 25.3875 24.8933 25.6928 25.6929 25.6928C26.4925 25.6928 27.2921 25.3875 27.9024 24.7772C29.1231 23.5565 29.1231 21.579 27.9024 20.3583L21.2739 13.7297C20.0532 12.509 18.0757 12.509 16.855 13.7297C15.6343 14.9504 15.6343 16.928 16.855 18.1487L23.4833 24.7772Z" fill="#f87171"/>
<path d="M37.5 46.875V71.875H50V34.375C43.0963 34.375 37.5 39.9713 37.5 46.875Z" fill="#f87171"/>
</svg>
